<?xml version="1.0" encoding="utf-8"?>
<svg viewBox="0 0 500 500" xmlns="http://www.w3.org/2000/svg">
  <path d="M 245.552 26.993 C 127.003 26.993 30.552 123.444 30.552 241.993 C 30.552 360.542 127.003 456.993 245.552 456.993 C 364.101 456.993 460.552 360.542 460.552 241.993 C 460.552 123.444 364.101 26.993 245.552 26.993 Z M 415.462 312.936 C 394.327 363.375 351.358 402.483 298.43 418.377 C 299.379 416.615 300.298 414.834 301.187 413.033 C 305.734 403.831 310.512 397.343 318.531 390.872 C 324.668 385.916 336.717 378.24 334.747 368.561 C 333.326 361.566 325.34 358.696 319.305 356.986 C 309.73 354.273 299.487 353.57 289.606 352.886 C 281.049 352.288 272.163 352.593 263.809 350.462 C 251.307 347.28 248.489 336.458 247.698 325.05 C 246.993 314.909 247.144 304.483 242.157 295.306 C 235.735 283.495 220.955 280.136 208.699 279.009 C 198.353 278.062 188.02 278.561 177.73 276.837 C 167.83 275.179 158.454 271.702 148.288 272.096 C 135.113 272.604 129.196 281.534 123.576 291.861 C 120.802 296.961 103.28 336.182 92.985 344.976 C 75.233 318.769 64.066 287.761 61.842 254.344 C 63.297 253.952 64.739 253.409 66.203 252.68 C 71.931 249.836 75.944 244.702 82.177 242.669 C 88.12 240.733 95.798 242.45 101.87 243.045 C 107.912 243.636 114.048 244.262 120.095 243.439 C 132.166 241.79 138.562 233.452 140.49 221.812 C 141.636 214.859 140.742 207.867 140.949 200.866 C 141.276 189.957 148.435 186.043 158.3 185.115 C 176.934 183.365 220.401 188.303 221.281 159.625 C 221.656 147.358 207.056 141.027 197.547 137.753 C 179.031 131.383 158.8 133.607 139.862 129.182 C 129.789 126.828 121.293 120.545 114.169 113.119 C 147.613 79.04 194.15 57.857 245.552 57.857 C 256.546 57.857 267.307 58.827 277.771 60.685 C 272.421 61.679 267.14 63.091 262.002 65.166 C 234.895 76.095 234.079 106.848 245.927 129.951 C 253.275 144.279 265.175 156.283 277.605 166.265 C 289.638 175.924 302.786 181.632 316.128 188.959 C 333.829 198.692 331.692 224.11 336.17 241.236 C 339.947 255.679 349.017 267.863 363.313 272.863 C 371.956 275.883 382.108 273.526 389.676 279.548 C 396.176 284.705 397.703 295.262 401.418 302.357 C 405.118 309.436 410.043 312.416 415.462 312.936 Z" style="fill: rgb(255, 255, 255);"/>
  <g transform="matrix(1, 0, 0, 1, 30.551601, 26.992884)"/>
  <g transform="matrix(1, 0, 0, 1, 30.551601, 26.992884)"/>
  <g transform="matrix(1, 0, 0, 1, 30.551601, 26.992884)"/>
  <g transform="matrix(1, 0, 0, 1, 30.551601, 26.992884)"/>
  <g transform="matrix(1, 0, 0, 1, 30.551601, 26.992884)"/>
  <g transform="matrix(1, 0, 0, 1, 30.551601, 26.992884)"/>
  <g transform="matrix(1, 0, 0, 1, 30.551601, 26.992884)"/>
  <g transform="matrix(1, 0, 0, 1, 30.551601, 26.992884)"/>
  <g transform="matrix(1, 0, 0, 1, 30.551601, 26.992884)"/>
  <g transform="matrix(1, 0, 0, 1, 30.551601, 26.992884)"/>
  <g transform="matrix(1, 0, 0, 1, 30.551601, 26.992884)"/>
  <g transform="matrix(1, 0, 0, 1, 30.551601, 26.992884)"/>
  <g transform="matrix(1, 0, 0, 1, 30.551601, 26.992884)"/>
  <g transform="matrix(1, 0, 0, 1, 30.551601, 26.992884)"/>
  <g transform="matrix(1, 0, 0, 1, 30.551601, 26.992884)"/>
</svg>